<svg xmlns="http://www.w3.org/2000/svg" viewBox="0 0 120 120" fill="none">
  <defs>
    <linearGradient id="ac" x1="0" y1="0" x2="1" y2="1">
      <stop offset="0%" stop-color="#06b6d4"/>
      <stop offset="100%" stop-color="#10b981"/>
    </linearGradient>
  </defs>
  <!-- Brain outline (left hemisphere) -->
  <path d="M60 25 C40 25 28 38 28 55 C28 62 32 70 38 75 C34 80 35 88 40 92 C45 96 55 95 60 90" stroke="url(#ac)" stroke-width="2.5" fill="none"/>
  <!-- Brain outline (right hemisphere) -->
  <path d="M60 25 C80 25 92 38 92 55 C92 62 88 70 82 75 C86 80 85 88 80 92 C75 96 65 95 60 90" stroke="url(#ac)" stroke-width="2.5" fill="none"/>
  <!-- Center line -->
  <line x1="60" y1="28" x2="60" y2="88" stroke="url(#ac)" stroke-width="1" opacity="0.3"/>
  <!-- Neural nodes -->
  <circle cx="45" cy="45" r="4" fill="#06b6d4" opacity="0.8"/>
  <circle cx="75" cy="45" r="4" fill="#10b981" opacity="0.8"/>
  <circle cx="40" cy="62" r="4" fill="#10b981" opacity="0.8"/>
  <circle cx="80" cy="62" r="4" fill="#06b6d4" opacity="0.8"/>
  <circle cx="52" cy="75" r="4" fill="#06b6d4" opacity="0.8"/>
  <circle cx="68" cy="75" r="4" fill="#10b981" opacity="0.8"/>
  <circle cx="60" cy="55" r="5" fill="url(#ac)" opacity="0.9"/>
  <!-- Connections from center -->
  <line x1="56" y1="52" x2="48" y2="47" stroke="#06b6d4" stroke-width="1.5" opacity="0.5"/>
  <line x1="64" y1="52" x2="72" y2="47" stroke="#10b981" stroke-width="1.5" opacity="0.5"/>
  <line x1="56" y1="58" x2="43" y2="60" stroke="#10b981" stroke-width="1.5" opacity="0.5"/>
  <line x1="64" y1="58" x2="77" y2="60" stroke="#06b6d4" stroke-width="1.5" opacity="0.5"/>
  <line x1="57" y1="59" x2="53" y2="72" stroke="#06b6d4" stroke-width="1.5" opacity="0.5"/>
  <line x1="63" y1="59" x2="67" y2="72" stroke="#10b981" stroke-width="1.5" opacity="0.5"/>
  <!-- Orbit ring -->
  <ellipse cx="60" cy="58" rx="40" ry="12" stroke="url(#ac)" stroke-width="1" opacity="0.2" transform="rotate(-15 60 58)"/>
</svg>
